<?xml version="1.0" encoding="UTF-8"?>
<svg id="Layer_1" xmlns="http://www.w3.org/2000/svg" version="1.1" viewBox="0 0 2500 2500">
  <!-- Generator: Adobe Illustrator 30.2.1, SVG Export Plug-In . SVG Version: 2.1.1 Build 1)  -->
  <defs>
    <style>
      .st0 {
        fill: #fff;
      }
    </style>
  </defs>
  <path class="st0" d="M1783.34,1435.6c12.62-5.93,26.22-15.04,38.87-23.39,18.21-11.44,34.97-20.02,53.48-33.99,27.39-20.75,54.37-42.73,80.25-64.84,55.53-43.92,110.08-90.7,165.92-130.02,55.89-35.69,61.46,9.99,48.16,55.89-15,51.9-41.84,99.73-56.69,152.42-3.05,11.28-9.86,25.81-6.66,36.69,11.69,21.33,50.35,15.95,74.2,17.5,17.61,1.64,65.36-5.43,65.68,9.6-9.21,12.84-32.59,13.43-47.77,16.71-33.57,6.48-61.37,7.27-94.96,3.92-33.78-2.53-47.29-28.84-34.62-58.58,8.54-24.6,24.35-69.49,33.43-95.46,5.72-18.09,12.6-33.2,20.05-49.54,4.91-13.44,13.88-29.78,10.06-44-7.65-15.01-87.48,59.82-100.22,68.15-72.18,52.48-243.19,216.62-336.01,186.47-34.09-13.03-20.85-54.58-52.86-61.8-9.34-2.17-19.49-2.72-28.42-6.69-14.72-5.4-24.75-15.58-38.13-14.72-15.98,4.13-24.07,24.83-35.48,36.14-18.52,21.98-36.67,44.08-59.17,60.37-36.06,22.66-86.18,62.2-128.58,39.91-46.72-33.17-10.83-120.2-37.64-111.23-15.79,7.8-33.81,32.55-49.38,44.78-48.1,39.92-130.73,116.97-192.73,84.57-14.42-8.8-24.82-24.45-41.98-28.6-12.33-3.72-26-1.9-38.73-.85-7.69.78-15.81,1.36-21.98,6.23-11.3,9.5-15.49,26.81-19.77,40.7-6.82,22.24-14.72,45.82-22.93,69.68-4.76,13.53-8.59,27.22-14.79,39.54-15.9,28.14-32.93,10.14-41.89-10.94-7.45-13.97-7.01-27.42-6.17-43.23.15-15.62-1.51-31.21-1.81-47.14-.17-13.97-1.37-27.66-2.22-41.57-1.71-28.99,3.35-61.27-14.85-86.13-16.39-27.5-36.97-50.37-41.69-83.99-4.56-28.42-11.38-57.67-11.76-86.32.45-24.95.93-89.85,39.35-82.05,20.39,7.23,23.83,26.54,30.1,45.07,5.65,16.11,10.67,34.48,14.09,51.58,6.1,34.76,4.96,57.87,9.66,89.25,1.91,29.43,6.74,77.05,43.82,79.56,18.25-2.41,23.39-25.61,29.16-40.91,10.77-29.92,20.52-61.01,32.25-90.68,13.9-31.48,24.55-63.1,35.93-95.28,10.15-26.21,22.08-52.2,30.37-78.92,22.17-63.77,41.76-128.84,65.24-192.81,13.13-37.89,23.82-78.27,34.48-117.25,6.01-19.17,13.33-66.1,31.64-72.98,11.7-2.21,9.84,7.82,7.31,17.69-2.46,10.86-.76,19.57-1.93,32.24-6.49,48.91-26.48,97.13-39.73,144.27-18.86,56.51-34.44,115.44-54.28,171.91-24.3,65.74-50.29,135.65-74.36,201.96-12.45,37.24-30.12,75.96-39.33,114.37-3.66,25.6,14.78,30.33,35.59,26.13,25.96-5.49,29.56-49.09,42.65-69.96,13.9-28.81,28.64-62.7,48.98-86.69,28.03-25.94,69.21-90.72,112.3-70.77,24.08,16.59,17.26,53.5,10.5,77.92-17,55.49-52.15,103.69-98.45,138.03-11.11,12.2-62.39,30.34-49.88,49.01,23.61,19.12,70.8-9.08,93.11-23.29,17.43-11.66,32.8-27.62,48.89-39.11,9.04-6.03,16.63-10.94,24.36-18.64,41.12-47.67,83.82-93.59,119.98-145.53,24.17-37.09,43.07-76.7,64.78-115.07,28.99-52.81,62.84-106.62,91.96-158.46,19.25-33.56,42.9-64.27,64.53-96.67,6.45-8.95,16.76-20.88,26.7-20.04,7.43.64,13.27,6.87,12.58,17.45-.63,8.95-4.65,18.98-8.39,27.77-17.88,44.08-38.73,80.3-64.31,119.53-25.87,42.58-49.53,84.83-77.34,126.42-46.28,72.72-130.92,184.55-125.22,273.03,2.67,32.59,26.83,42.79,54.18,28.95,19.64-8.44,39.93-19.94,55.12-34.15,39.16-37.66,76.7-78.24,97.72-128.39,14.02-23.35,16.5-83.13,42-88.92,31.34,2.63,10.55,50.69,4.77,69.84-18.64,45.99,10.48,77.52,55.79,57.65,25.21-13.71,35.05-44.88,51.28-66.47,29.69-40.42,59.81-82.04,94.12-118.63,19.65-19.18,38.87-42.88,65.07-51.81,18.44-5.72,34.44,4.08,33.9,24.04-13.77,94.63-97.35,163.37-172.86,216.92-19.14,13.77-50.23,40.19-33.22,65.15,16.22,14.94,55.5-1.06,74.29-8.24l.55-.26h-.01ZM1774.63,1281.41c-7.18,8.13-40.14,55.77-11.53,40.25,20.55-13.12,43.93-35.57,61.16-54.39,13.58-15.35,29.08-31.79,38.77-49.89,9.35-19.05,7.9-33.13-13.86-16.13-10.53,6.75-14.94,16.59-22.8,25.18-18.84,15.47-36.14,35.38-51.29,54.39l-.47.59h.02ZM862.93,1382.73c8.53-18.64-4.02-49.18-7.94-69.73-4.04-21.93-4.63-42.66-14.79-62.23-1.96-3.53-5.99-9.84-9.4-8.94-5.11,2.94-6.02,13.53-6.92,19.77-2.94,29.61,3.21,58.19,11.15,86.81,2.2,8.47,17.05,41.35,27.67,34.57l.23-.25ZM1098.98,1411.91c-3.26,6.69-5.89,14.01-8.27,21.16-5.59,18.18-16.89,43.38,7.43,30.84,53.09-24.22,104.47-95.51,116.21-153.7,5.7-33.85-43.68,1.66-54.34,11.66-25.6,24.67-43.45,59.27-60.72,89.41l-.31.63ZM930.37,1527.17c.15-6.66-1.58-12.74-5.35-18-6.97-8.88-20.95-19.63-30.43-15.23-4.39,2.57-3.93,7.44-2.94,11.83,2.37,10.1,1.83,21.99-.01,32.87-2.18,11.17-.2,24.78,1.43,37,1.54,7.57,4.24,24.17,12.37,25.26,8.63-3.46,8.51-16.26,13.62-30.19,3.87-13.65,10.69-29.56,11.3-42.74l.02-.8h-.01Z"/>
  <path class="st0" d="M847.9,882.67c-10.96,14.29-24.35,27.01-36.77,41.25-69.57,85.62-156.79,154.39-252.21,210.28-25.73,15.09-50.75,31.38-77.54,44.29-52.29,24.79-102.62,55.57-156.4,74.92-21.48,7.27-44.79,12.5-66.85,18.51-10.3,2.93-20.81,6-31.56,4.21-34.28-5.23-42.6-41.58-23.76-67.83,21.31-32.67,62.22-36.96,96.66-45.52,2.18-.33,16.01-4.88,12.2.3-11.17,10.44-27.14,17.94-40.06,25.37-11.11,6.1-23.46,11.23-32.01,20.94-19.78,24.59,18.72,29.38,38.11,25.43,30.31-4.99,57.82-19.5,84.74-33.63,31.94-17,65.08-33.1,96.87-50.59,75.97-43.82,153.59-86.74,220.89-143.81,80.31-68.28,141.99-155.18,201.54-241.16,16.16-24.24,30.1-49.6,39.71-77.29,5.53-17.8,19.87-47.1,41.53-39.01,15.33,8.86,5.19,34.12-.62,47.74-16.31,38.72-31.58,77.71-44.92,117.4-41.78,146.21-87.68,295.64-134.73,440.16-40.52,112.63-79.48,225.45-117.31,338.84-16.31,51.02-34.4,102.34-51.02,153.73-4.73,16.52-3.17,35.12-13.09,49.79-7.29,11.15-21.52,15.88-29.2,4.77-12.11-19.65-2.54-46.89,4.3-67.44,13.33-38.29,22.31-77.32,37.44-114.92,8.13-24.95,11.1-48.21,20.26-72.22,5.09-14.85,14.05-28.8,19.5-43.6,6.12-16.27,7.27-34.08,12.89-50.48,4.8-14.43,13.11-27.37,18.54-41.78,6.67-17.45,10.76-35.82,17.31-53.3,14.77-41.28,32.96-81.54,46.6-122.83,5.38-16.29,7.06-32.44,12.42-48.31,7.27-19.95,17.51-39.24,23.17-60.03,14.4-44.22,27.47-87.69,42.47-131.69,8.28-21.76,14.8-42.74,21.18-65.41,3.23-12.58,24.82-79.8.1-47.56l-.39.48h.01Z"/>
</svg>