<?xml version="1.0" encoding="UTF-8"?><svg id="a" xmlns="http://www.w3.org/2000/svg" viewBox="0 0 958 360"><defs><style>.b{fill:#ffe;}</style></defs><path class="b" d="M335.34,235.57V94.79l-38.41,20.99v3.58c9.78,1.19,10.02,1.43,10.02,14.55v101.66c0,19.08-.24,21.71-9.06,24.57v3.1h47.23v-3.1c-9.54-2.62-9.78-5.49-9.78-24.57Z"/><path class="b" d="M392.12,235.57V94.79l-38.41,20.99v3.58c9.78,1.19,10.02,1.43,10.02,14.55v101.66c0,19.08-.24,21.71-9.06,24.57v3.1h47.23v-3.1c-9.54-2.62-9.78-5.49-9.78-24.57Z"/><path class="b" d="M448.56,192.78c-15.74-9.07-23.62-13.84-23.62-24.33,0-8.83,5.25-13.84,14.79-13.84,11.93,0,23.38,9.06,28.87,29.1h3.58v-31.01h-3.58c-.48,2.15-2.15,3.34-4.06,3.34-8.11,0-14.31-5.25-24.81-5.25-16.7,0-29.82,13.84-29.82,29.34,0,19.32,5.96,26.91,28.63,38.36,18.37,9.78,22.9,15.64,22.9,25.18,0,10.74-6.44,17.42-16.46,17.42-16.46,0-25.77-13.84-32.44-36.26h-3.58v35.55h3.81c.48-3.1,2.15-4.06,4.06-4.06,5.96,0,12.64,8.59,28.15,8.59,16.7,0,35.31-13.6,35.31-32.44,0-20.28-5.96-26.56-31.73-39.68Z"/><path class="b" d="M535.09,259.66c-9.78,0-11.21-6.68-11.21-25.53v-77.67h21.47v-4.53h-21.47v-43.18h-3.58c-4.53,26.72-20.52,42.23-34.35,43.9v3.82h9.78v82.68c0,16.22,10.5,26.48,29.11,26.48,14.55,0,19.56-4.77,22.19-7.63l-2.15-2.39c-2.38,2.39-5.01,4.06-9.78,4.06Z"/><path class="b" d="M636.32,258.71c-5.25,0-6.44-2.39-6.44-23.62v-53.76c0-22.66-17.89-30.54-42.46-30.54-22.66,0-35.78,8.35-35.78,18.37,0,5.49,4.53,9.78,10.73,9.78,7.4,0,10.02-3.82,11.93-10.02,3.82-9.3,7.87-14.31,14.07-14.31,8.83,0,13.36,3.58,13.36,15.51v15.59c0,14.31-7.16,15.27-12.88,18.37l-.48,.24c-19.32,9.3-41.27,12.41-41.27,35.31,0,16.46,10.73,26,26.24,26,13.84,0,20.75-6.44,28.63-14.55l.24-.24c1.91,9.06,8.83,14.07,20.52,14.07,12.41,0,17.89-3.58,20.28-5.49l-1.19-2.62c-1.19,.95-2.86,1.91-5.49,1.91Zm-34.59-11.93c-6.68,6.44-11.21,10.74-14.55,10.74-7.64,0-11.69-7.4-11.69-23.14,0-14.55,3.58-20.99,13.36-26.24h.48c5.01-2.86,9.78-4.29,12.41-8.35v47Z"/><path class="b" d="M681.78,235.57V94.79l-37.93,21.23v3.58c9.06,1.19,9.54,1.19,9.54,14.31v101.66c0,19.08-.24,21.95-8.11,24.57v3.1h45.33v-3.1c-8.59-2.62-8.83-5.49-8.83-24.57Z"/><path class="b" d="M842.81,249.17l-33.9-59.93,15.05-14.83c14.08-13.84,18.37-16.7,23.62-18.37v-3.1h-28.15v3.1c7.4,.95,11.69,5.73,1.43,15.74l-32.69,32.21v2.86l22.67,42.07c4.06,7.87,4.06,10.5-3.1,11.69v2.62h44.37v-2.62c-2.62-.95-5.01-3.1-9.3-11.45Z"/><path class="b" d="M785.08,235.57V94.79l-37.93,21.23v3.58c9.06,1.19,9.54,1.19,9.54,14.31v101.66c0,19.02-2.09,24.31-6.95,24.31-3.02,0-5.52-2.88-6.82-4.74-1-1.52-2.12-3.47-3.41-5.97l-33.9-59.93,15.05-14.83c14.08-13.84,18.37-16.7,23.62-18.37v-3.1h-28.15v3.1c7.4,.95,11.69,5.73,1.43,15.74l-32.69,32.21v2.86l22.67,42.07c4.06,7.87,4.06,10.5-3.1,11.69v2.62h89.46v-3.1c-8.59-2.62-8.83-5.49-8.83-24.57Z"/><path class="b" d="M278.57,235.57v-85.73l-38.41,20.76v3.58c9.78,1.91,10.02,2.86,10.02,16.22v48.27c-9.06,10.02-16.22,17.41-21.95,17.41-4.29,0-7.87-5.01-7.87-15.03v-91.22l-24.41,13.19c-8.83,4.14-17.68,6.84-29.03,6.84h-17.85V98.19h25.24c41.03,0,46.76,6.68,55.59,31.01h4.06l-4.06-27.91c-.96-6.68-2.15-6.92-5.73-6.92H105.89v3.1c9.15,2.5,10.5,6.93,10.5,32.65v87.31c0,36.74-.48,40.08-10.5,42.7v3.1h53.67v-3.1c-9.78-2.62-10.49-5.96-10.49-42.7v-43.75h17.85c19.89,0,25.05,4.15,25.05,18.94v45.08c0,21.47,13.84,27.67,24.81,27.67,13.12,0,21.95-9.06,33.4-21.47v19.32h36.02v-3.1c-7.4-2.62-7.64-5.49-7.64-24.57Z"/></svg>